<svg xmlns="http://www.w3.org/2000/svg" viewBox="-126 -56 320.8 228.6" role="img" aria-label="180 by 100 by 32 mm organizer, 3 bays, assembled nominal preview">
<title>Original parametric two-piece organizer</title><desc>Orthographic isometric preview; nominal geometry, not a photograph or physical test.</desc>
<ellipse cx="34.4" cy="72.8" rx="112" ry="36.4" fill="#a6a98e" opacity=".15"/>
<polygon points="0,-0.48 1.29,0.15 0,0.78 -1.29,0.15" fill="#e5d3b1" stroke="#e5d3b1" stroke-width=".22"/><polygon points="-1.29,0.15 0,0.78 -1.72,1.62 -3.01,0.99" fill="#e5d3b1" stroke="#e5d3b1" stroke-width=".22"/><polygon points="0,-0.48 0,-20.48 1.29,-19.85 1.29,0.15" fill="#cfb58d" stroke="#cfb58d" stroke-width=".22"/><polygon points="0,-0.48 -1.29,0.15 -1.29,-19.85 0,-20.48" fill="#a78a64" stroke="#a78a64" stroke-width=".22"/><polygon points="-1.29,0.15 -3.01,0.99 -3.01,-19.01 -1.29,-19.85" fill="#a78a64" stroke="#a78a64" stroke-width=".22"/><polygon points="0,-20.48 -1.29,-19.85 -1.29,-28.85 0,-29.48" fill="#a78a64" stroke="#a78a64" stroke-width=".22"/><polygon points="0,-20.48 0,-29.48 1.29,-28.85 1.29,-19.85" fill="#cfb58d" stroke="#cfb58d" stroke-width=".22"/><polygon points="0,-32 2.58,-30.74 0,-29.48 -2.58,-30.74" fill="#e5d3b1" stroke="#e5d3b1" stroke-width=".22"/><polygon points="-1.29,-19.85 -3.01,-19.01 -3.01,-28.01 -1.29,-28.85" fill="#a78a64" stroke="#a78a64" stroke-width=".22"/><polygon points="-2.58,-30.74 0,-29.48 -1.29,-28.85 -3.87,-30.11" fill="#e5d3b1" stroke="#e5d3b1" stroke-width=".22"/><polygon points="2.58,-30.74 3.87,-30.11 1.29,-28.85 0,-29.48" fill="#e5d3b1" stroke="#e5d3b1" stroke-width=".22"/><polygon points="-3.87,-30.11 -1.29,-28.85 -3.01,-28.01 -5.59,-29.27" fill="#e5d3b1" stroke="#e5d3b1" stroke-width=".22"/><polygon points="1.29,0.15 49.163,23.53 47.873,24.16 0,0.78" fill="#e5d3b1" stroke="#e5d3b1" stroke-width=".22"/><polygon points="1.29,0.15 1.29,-19.85 49.163,3.53 49.163,23.53" fill="#cfb58d" stroke="#cfb58d" stroke-width=".22"/><polygon points="-1.72,1.62 -1.72,-18.38 46.153,5 46.153,25" fill="#57ac9e" stroke="#57ac9e" stroke-width=".22"/><polygon points="-3.01,0.99 -1.72,1.62 -76.54,38.16 -77.83,37.53" fill="#e5d3b1" stroke="#e5d3b1" stroke-width=".22"/><polygon points="0,-19.22 47.873,4.16 46.153,5 -1.72,-18.38" fill="#91d9c5" stroke="#91d9c5" stroke-width=".22"/><polygon points="1.29,-19.85 1.29,-28.85 49.163,-5.47 49.163,3.53" fill="#cfb58d" stroke="#cfb58d" stroke-width=".22"/><polygon points="3.87,-30.11 51.743,-6.73 49.163,-5.47 1.29,-28.85" fill="#e5d3b1" stroke="#e5d3b1" stroke-width=".22"/><polygon points="-3.01,0.99 -77.83,37.53 -77.83,17.53 -3.01,-19.01" fill="#a78a64" stroke="#a78a64" stroke-width=".22"/><polygon points="49.163,23.53 50.883,24.37 49.593,25 47.873,24.16" fill="#e5d3b1" stroke="#e5d3b1" stroke-width=".22"/><polygon points="49.163,23.53 49.163,3.53 50.883,4.37 50.883,24.37" fill="#cfb58d" stroke="#cfb58d" stroke-width=".22"/><polygon points="-3.01,-19.01 -77.83,17.53 -77.83,8.53 -3.01,-28.01" fill="#a78a64" stroke="#a78a64" stroke-width=".22"/><polygon points="-5.59,-29.27 -3.01,-28.01 -77.83,8.53 -80.41,7.27" fill="#e5d3b1" stroke="#e5d3b1" stroke-width=".22"/><polygon points="-1.72,1.62 46.153,25 -28.667,61.54 -76.54,38.16" fill="#e5d3b1" stroke="#e5d3b1" stroke-width=".22"/><polygon points="47.873,4.16 49.593,5 47.873,5.84 46.153,5" fill="#91d9c5" stroke="#91d9c5" stroke-width=".22"/><polygon points="49.163,3.53 49.163,-5.47 50.883,-4.63 50.883,4.37" fill="#cfb58d" stroke="#cfb58d" stroke-width=".22"/><polygon points="51.743,-6.73 53.463,-5.89 50.883,-4.63 49.163,-5.47" fill="#e5d3b1" stroke="#e5d3b1" stroke-width=".22"/><polygon points="50.883,24.37 98.757,47.75 97.467,48.38 49.593,25" fill="#e5d3b1" stroke="#e5d3b1" stroke-width=".22"/><polygon points="-77.83,37.53 -76.54,38.16 -78.26,39 -79.55,38.37" fill="#e5d3b1" stroke="#e5d3b1" stroke-width=".22"/><polygon points="-79.55,38.37 -78.26,39 -79.55,39.63 -80.84,39" fill="#e5d3b1" stroke="#e5d3b1" stroke-width=".22"/><polygon points="-86,42 -86,39 -83.42,40.26 -83.42,43.26" fill="#cfb58d" stroke="#cfb58d" stroke-width=".22"/><polygon points="50.883,24.37 50.883,4.37 98.757,27.75 98.757,47.75" fill="#cfb58d" stroke="#cfb58d" stroke-width=".22"/><polygon points="-83.42,43.26 -83.42,40.26 -82.13,40.89 -82.13,43.89" fill="#cfb58d" stroke="#cfb58d" stroke-width=".22"/><polygon points="47.873,25.84 47.873,5.84 95.747,29.22 95.747,49.22" fill="#57ac9e" stroke="#57ac9e" stroke-width=".22"/><polygon points="-77.83,37.53 -79.55,38.37 -79.55,18.37 -77.83,17.53" fill="#a78a64" stroke="#a78a64" stroke-width=".22"/><polygon points="-79.55,38.37 -80.84,39 -80.84,19 -79.55,18.37" fill="#a78a64" stroke="#a78a64" stroke-width=".22"/><polygon points="-86,39 -86,19 -83.42,20.26 -83.42,40.26" fill="#cfb58d" stroke="#cfb58d" stroke-width=".22"/><polygon points="-83.42,40.26 -83.42,20.26 -82.13,20.89 -82.13,40.89" fill="#cfb58d" stroke="#cfb58d" stroke-width=".22"/><polygon points="49.593,5 97.467,28.38 95.747,29.22 47.873,5.84" fill="#91d9c5" stroke="#91d9c5" stroke-width=".22"/><polygon points="50.883,4.37 50.883,-4.63 98.757,18.75 98.757,27.75" fill="#cfb58d" stroke="#cfb58d" stroke-width=".22"/><polygon points="53.463,-5.89 101.337,17.49 98.757,18.75 50.883,-4.63" fill="#e5d3b1" stroke="#e5d3b1" stroke-width=".22"/><polygon points="-77.83,17.53 -79.55,18.37 -79.55,9.37 -77.83,8.53" fill="#a78a64" stroke="#a78a64" stroke-width=".22"/><polygon points="-79.55,18.37 -80.84,19 -80.84,10 -79.55,9.37" fill="#a78a64" stroke="#a78a64" stroke-width=".22"/><polygon points="-80.41,7.27 -77.83,8.53 -79.55,9.37 -82.13,8.11" fill="#e5d3b1" stroke="#e5d3b1" stroke-width=".22"/><polygon points="47.873,25.84 -26.947,62.38 -26.947,42.38 47.873,5.84" fill="#2e8279" stroke="#2e8279" stroke-width=".22"/><polygon points="-86,19 -86,10 -83.42,11.26 -83.42,20.26" fill="#cfb58d" stroke="#cfb58d" stroke-width=".22"/><polygon points="-82.13,8.11 -79.55,9.37 -80.84,10 -83.42,8.74" fill="#e5d3b1" stroke="#e5d3b1" stroke-width=".22"/><polygon points="98.757,47.75 100.477,48.59 99.187,49.22 97.467,48.38" fill="#e5d3b1" stroke="#e5d3b1" stroke-width=".22"/><polygon points="-83.42,20.26 -83.42,11.26 -82.13,11.89 -82.13,20.89" fill="#cfb58d" stroke="#cfb58d" stroke-width=".22"/><polygon points="-83.42,8.74 -80.84,10 -83.42,11.26 -86,10" fill="#e5d3b1" stroke="#e5d3b1" stroke-width=".22"/><polygon points="-80.84,10 -79.55,10.63 -82.13,11.89 -83.42,11.26" fill="#e5d3b1" stroke="#e5d3b1" stroke-width=".22"/><polygon points="46.153,5 47.873,5.84 -26.947,42.38 -28.667,41.54" fill="#91d9c5" stroke="#91d9c5" stroke-width=".22"/><polygon points="-78.26,39 -30.387,62.38 -31.677,63.01 -79.55,39.63" fill="#e5d3b1" stroke="#e5d3b1" stroke-width=".22"/><polygon points="98.757,47.75 98.757,27.75 100.477,28.59 100.477,48.59" fill="#cfb58d" stroke="#cfb58d" stroke-width=".22"/><polygon points="-82.13,43.89 -82.13,40.89 -34.257,64.27 -34.257,67.27" fill="#cfb58d" stroke="#cfb58d" stroke-width=".22"/><polygon points="-78.26,39 -78.26,19 -30.387,42.38 -30.387,62.38" fill="#57ac9e" stroke="#57ac9e" stroke-width=".22"/><polygon points="47.873,25.84 95.747,49.22 20.927,85.76 -26.947,62.38" fill="#e5d3b1" stroke="#e5d3b1" stroke-width=".22"/><polygon points="-82.13,40.89 -82.13,20.89 -34.257,44.27 -34.257,64.27" fill="#cfb58d" stroke="#cfb58d" stroke-width=".22"/><polygon points="97.467,28.38 99.187,29.22 97.467,30.06 95.747,29.22" fill="#91d9c5" stroke="#91d9c5" stroke-width=".22"/><polygon points="98.757,27.75 98.757,18.75 100.477,19.59 100.477,28.59" fill="#cfb58d" stroke="#cfb58d" stroke-width=".22"/><polygon points="-76.54,18.16 -28.667,41.54 -30.387,42.38 -78.26,19" fill="#91d9c5" stroke="#91d9c5" stroke-width=".22"/><polygon points="101.337,17.49 103.057,18.33 100.477,19.59 98.757,18.75" fill="#e5d3b1" stroke="#e5d3b1" stroke-width=".22"/><polygon points="100.477,48.59 148.35,71.97 147.06,72.6 99.187,49.22" fill="#e5d3b1" stroke="#e5d3b1" stroke-width=".22"/><polygon points="-82.13,20.89 -82.13,11.89 -34.257,35.27 -34.257,44.27" fill="#cfb58d" stroke="#cfb58d" stroke-width=".22"/><polygon points="-79.55,10.63 -31.677,34.01 -34.257,35.27 -82.13,11.89" fill="#e5d3b1" stroke="#e5d3b1" stroke-width=".22"/><polygon points="-30.387,62.38 -28.667,63.22 -29.957,63.85 -31.677,63.01" fill="#e5d3b1" stroke="#e5d3b1" stroke-width=".22"/><polygon points="100.477,48.59 100.477,28.59 148.35,51.97 148.35,71.97" fill="#cfb58d" stroke="#cfb58d" stroke-width=".22"/><polygon points="-34.257,67.27 -34.257,64.27 -32.537,65.11 -32.537,68.11" fill="#cfb58d" stroke="#cfb58d" stroke-width=".22"/><polygon points="97.467,50.06 97.467,30.06 145.34,53.44 145.34,73.44" fill="#57ac9e" stroke="#57ac9e" stroke-width=".22"/><polygon points="-30.387,62.38 -30.387,42.38 -28.667,43.22 -28.667,63.22" fill="#57ac9e" stroke="#57ac9e" stroke-width=".22"/><polygon points="-34.257,64.27 -34.257,44.27 -32.537,45.11 -32.537,65.11" fill="#cfb58d" stroke="#cfb58d" stroke-width=".22"/><polygon points="99.187,29.22 147.06,52.6 145.34,53.44 97.467,30.06" fill="#91d9c5" stroke="#91d9c5" stroke-width=".22"/><polygon points="100.477,28.59 100.477,19.59 148.35,42.97 148.35,51.97" fill="#cfb58d" stroke="#cfb58d" stroke-width=".22"/><polygon points="-28.667,41.54 -26.947,42.38 -28.667,43.22 -30.387,42.38" fill="#91d9c5" stroke="#91d9c5" stroke-width=".22"/><polygon points="103.057,18.33 150.93,41.71 148.35,42.97 100.477,19.59" fill="#e5d3b1" stroke="#e5d3b1" stroke-width=".22"/><polygon points="97.467,50.06 22.647,86.6 22.647,66.6 97.467,30.06" fill="#2e8279" stroke="#2e8279" stroke-width=".22"/><polygon points="148.35,71.97 149.64,72.6 148.35,73.23 147.06,72.6" fill="#e5d3b1" stroke="#e5d3b1" stroke-width=".22"/><polygon points="154.8,75.6 152.22,76.86 152.22,73.86 154.8,72.6" fill="#a78a64" stroke="#a78a64" stroke-width=".22"/><polygon points="-34.257,44.27 -34.257,35.27 -32.537,36.11 -32.537,45.11" fill="#cfb58d" stroke="#cfb58d" stroke-width=".22"/><polygon points="147.06,72.6 148.35,73.23 146.63,74.07 145.34,73.44" fill="#e5d3b1" stroke="#e5d3b1" stroke-width=".22"/><polygon points="152.22,76.86 150.93,77.49 150.93,74.49 152.22,73.86" fill="#a78a64" stroke="#a78a64" stroke-width=".22"/><polygon points="-31.677,34.01 -29.957,34.85 -32.537,36.11 -34.257,35.27" fill="#e5d3b1" stroke="#e5d3b1" stroke-width=".22"/><polygon points="150.93,77.49 149.21,78.33 149.21,75.33 150.93,74.49" fill="#a78a64" stroke="#a78a64" stroke-width=".22"/><polygon points="95.747,29.22 97.467,30.06 22.647,66.6 20.927,65.76" fill="#91d9c5" stroke="#91d9c5" stroke-width=".22"/><polygon points="-28.667,63.22 19.207,86.6 17.917,87.23 -29.957,63.85" fill="#e5d3b1" stroke="#e5d3b1" stroke-width=".22"/><polygon points="148.35,71.97 148.35,51.97 149.64,52.6 149.64,72.6" fill="#cfb58d" stroke="#cfb58d" stroke-width=".22"/><polygon points="-32.537,68.11 -32.537,65.11 15.337,88.49 15.337,91.49" fill="#cfb58d" stroke="#cfb58d" stroke-width=".22"/><polygon points="147.06,72.6 145.34,73.44 145.34,53.44 147.06,52.6" fill="#2e8279" stroke="#2e8279" stroke-width=".22"/><polygon points="154.8,72.6 152.22,73.86 152.22,53.86 154.8,52.6" fill="#a78a64" stroke="#a78a64" stroke-width=".22"/><polygon points="152.22,73.86 150.93,74.49 150.93,54.49 152.22,53.86" fill="#a78a64" stroke="#a78a64" stroke-width=".22"/><polygon points="-28.667,63.22 -28.667,43.22 19.207,66.6 19.207,86.6" fill="#57ac9e" stroke="#57ac9e" stroke-width=".22"/><polygon points="150.93,74.49 149.21,75.33 149.21,55.33 150.93,54.49" fill="#a78a64" stroke="#a78a64" stroke-width=".22"/><polygon points="97.467,50.06 145.34,73.44 70.52,109.98 22.647,86.6" fill="#e5d3b1" stroke="#e5d3b1" stroke-width=".22"/><polygon points="-32.537,65.11 -32.537,45.11 15.337,68.49 15.337,88.49" fill="#cfb58d" stroke="#cfb58d" stroke-width=".22"/><polygon points="148.35,51.97 148.35,42.97 149.64,43.6 149.64,52.6" fill="#cfb58d" stroke="#cfb58d" stroke-width=".22"/><polygon points="-26.947,42.38 20.927,65.76 19.207,66.6 -28.667,43.22" fill="#91d9c5" stroke="#91d9c5" stroke-width=".22"/><polygon points="154.8,52.6 152.22,53.86 152.22,44.86 154.8,43.6" fill="#a78a64" stroke="#a78a64" stroke-width=".22"/><polygon points="150.93,41.71 152.22,42.34 149.64,43.6 148.35,42.97" fill="#e5d3b1" stroke="#e5d3b1" stroke-width=".22"/><polygon points="152.22,53.86 150.93,54.49 150.93,45.49 152.22,44.86" fill="#a78a64" stroke="#a78a64" stroke-width=".22"/><polygon points="152.22,42.34 154.8,43.6 152.22,44.86 149.64,43.6" fill="#e5d3b1" stroke="#e5d3b1" stroke-width=".22"/><polygon points="150.93,54.49 149.21,55.33 149.21,46.33 150.93,45.49" fill="#a78a64" stroke="#a78a64" stroke-width=".22"/><polygon points="149.64,43.6 152.22,44.86 150.93,45.49 148.35,44.23" fill="#e5d3b1" stroke="#e5d3b1" stroke-width=".22"/><polygon points="148.35,44.23 150.93,45.49 149.21,46.33 146.63,45.07" fill="#e5d3b1" stroke="#e5d3b1" stroke-width=".22"/><polygon points="-32.537,45.11 -32.537,36.11 15.337,59.49 15.337,68.49" fill="#cfb58d" stroke="#cfb58d" stroke-width=".22"/><polygon points="-29.957,34.85 17.917,58.23 15.337,59.49 -32.537,36.11" fill="#e5d3b1" stroke="#e5d3b1" stroke-width=".22"/><polygon points="19.207,86.6 20.927,87.44 19.637,88.07 17.917,87.23" fill="#e5d3b1" stroke="#e5d3b1" stroke-width=".22"/><polygon points="15.337,91.49 15.337,88.49 17.057,89.33 17.057,92.33" fill="#cfb58d" stroke="#cfb58d" stroke-width=".22"/><polygon points="19.207,86.6 19.207,66.6 20.927,67.44 20.927,87.44" fill="#57ac9e" stroke="#57ac9e" stroke-width=".22"/><polygon points="145.34,73.44 146.63,74.07 71.81,110.61 70.52,109.98" fill="#e5d3b1" stroke="#e5d3b1" stroke-width=".22"/><polygon points="15.337,88.49 15.337,68.49 17.057,69.33 17.057,89.33" fill="#cfb58d" stroke="#cfb58d" stroke-width=".22"/><polygon points="149.21,78.33 74.39,114.87 74.39,111.87 149.21,75.33" fill="#a78a64" stroke="#a78a64" stroke-width=".22"/><polygon points="20.927,65.76 22.647,66.6 20.927,67.44 19.207,66.6" fill="#91d9c5" stroke="#91d9c5" stroke-width=".22"/><polygon points="149.21,75.33 74.39,111.87 74.39,91.87 149.21,55.33" fill="#a78a64" stroke="#a78a64" stroke-width=".22"/><polygon points="15.337,68.49 15.337,59.49 17.057,60.33 17.057,69.33" fill="#cfb58d" stroke="#cfb58d" stroke-width=".22"/><polygon points="17.917,58.23 19.637,59.07 17.057,60.33 15.337,59.49" fill="#e5d3b1" stroke="#e5d3b1" stroke-width=".22"/><polygon points="20.927,87.44 68.8,110.82 67.51,111.45 19.637,88.07" fill="#e5d3b1" stroke="#e5d3b1" stroke-width=".22"/><polygon points="17.057,92.33 17.057,89.33 64.93,112.71 64.93,115.71" fill="#cfb58d" stroke="#cfb58d" stroke-width=".22"/><polygon points="149.21,55.33 74.39,91.87 74.39,82.87 149.21,46.33" fill="#a78a64" stroke="#a78a64" stroke-width=".22"/><polygon points="20.927,87.44 20.927,67.44 68.8,90.82 68.8,110.82" fill="#57ac9e" stroke="#57ac9e" stroke-width=".22"/><polygon points="146.63,45.07 149.21,46.33 74.39,82.87 71.81,81.61" fill="#e5d3b1" stroke="#e5d3b1" stroke-width=".22"/><polygon points="17.057,89.33 17.057,69.33 64.93,92.71 64.93,112.71" fill="#cfb58d" stroke="#cfb58d" stroke-width=".22"/><polygon points="22.647,66.6 70.52,89.98 68.8,90.82 20.927,67.44" fill="#91d9c5" stroke="#91d9c5" stroke-width=".22"/><polygon points="17.057,69.33 17.057,60.33 64.93,83.71 64.93,92.71" fill="#cfb58d" stroke="#cfb58d" stroke-width=".22"/><polygon points="19.637,59.07 67.51,82.45 64.93,83.71 17.057,60.33" fill="#e5d3b1" stroke="#e5d3b1" stroke-width=".22"/><polygon points="70.52,109.98 71.81,110.61 70.09,111.45 68.8,110.82" fill="#e5d3b1" stroke="#e5d3b1" stroke-width=".22"/><polygon points="68.8,110.82 70.09,111.45 68.8,112.08 67.51,111.45" fill="#e5d3b1" stroke="#e5d3b1" stroke-width=".22"/><polygon points="74.39,114.87 72.67,115.71 72.67,112.71 74.39,111.87" fill="#a78a64" stroke="#a78a64" stroke-width=".22"/><polygon points="64.93,115.71 64.93,112.71 66.22,113.34 66.22,116.34" fill="#cfb58d" stroke="#cfb58d" stroke-width=".22"/><polygon points="72.67,115.71 71.38,116.34 71.38,113.34 72.67,112.71" fill="#a78a64" stroke="#a78a64" stroke-width=".22"/><polygon points="71.38,116.34 68.8,117.6 68.8,114.6 71.38,113.34" fill="#a78a64" stroke="#a78a64" stroke-width=".22"/><polygon points="66.22,116.34 66.22,113.34 68.8,114.6 68.8,117.6" fill="#cfb58d" stroke="#cfb58d" stroke-width=".22"/><polygon points="70.52,109.98 68.8,110.82 68.8,90.82 70.52,89.98" fill="#2e8279" stroke="#2e8279" stroke-width=".22"/><polygon points="74.39,111.87 72.67,112.71 72.67,92.71 74.39,91.87" fill="#a78a64" stroke="#a78a64" stroke-width=".22"/><polygon points="64.93,112.71 64.93,92.71 66.22,93.34 66.22,113.34" fill="#cfb58d" stroke="#cfb58d" stroke-width=".22"/><polygon points="72.67,112.71 71.38,113.34 71.38,93.34 72.67,92.71" fill="#a78a64" stroke="#a78a64" stroke-width=".22"/><polygon points="71.38,113.34 68.8,114.6 68.8,94.6 71.38,93.34" fill="#a78a64" stroke="#a78a64" stroke-width=".22"/><polygon points="66.22,113.34 66.22,93.34 68.8,94.6 68.8,114.6" fill="#cfb58d" stroke="#cfb58d" stroke-width=".22"/><polygon points="74.39,91.87 72.67,92.71 72.67,83.71 74.39,82.87" fill="#a78a64" stroke="#a78a64" stroke-width=".22"/><polygon points="64.93,92.71 64.93,83.71 66.22,84.34 66.22,93.34" fill="#cfb58d" stroke="#cfb58d" stroke-width=".22"/><polygon points="72.67,92.71 71.38,93.34 71.38,84.34 72.67,83.71" fill="#a78a64" stroke="#a78a64" stroke-width=".22"/><polygon points="71.81,81.61 74.39,82.87 72.67,83.71 70.09,82.45" fill="#e5d3b1" stroke="#e5d3b1" stroke-width=".22"/><polygon points="66.22,93.34 66.22,84.34 68.8,85.6 68.8,94.6" fill="#cfb58d" stroke="#cfb58d" stroke-width=".22"/><polygon points="71.38,93.34 68.8,94.6 68.8,85.6 71.38,84.34" fill="#a78a64" stroke="#a78a64" stroke-width=".22"/><polygon points="67.51,82.45 68.8,83.08 66.22,84.34 64.93,83.71" fill="#e5d3b1" stroke="#e5d3b1" stroke-width=".22"/><polygon points="70.09,82.45 72.67,83.71 71.38,84.34 68.8,83.08" fill="#e5d3b1" stroke="#e5d3b1" stroke-width=".22"/><polygon points="68.8,83.08 71.38,84.34 68.8,85.6 66.22,84.34" fill="#e5d3b1" stroke="#e5d3b1" stroke-width=".22"/>
<path d="M -97.18 47.46 L 57.62 123.06" stroke="#718788" stroke-width=".55"/><circle cx="-97.18" cy="47.46" r="1" fill="#718788"/><circle cx="57.62" cy="123.06" r="1" fill="#718788"/><text x="-19.78" y="94.26" fill="#496263" font-family="monospace" font-size="6" text-anchor="middle">180 mm</text>
<path d="M 165.98 81.06 L 79.98 123.06" stroke="#718788" stroke-width=".55"/><circle cx="165.98" cy="81.06" r="1" fill="#718788"/><circle cx="79.98" cy="123.06" r="1" fill="#718788"/><text x="122.98" y="111.06" fill="#496263" font-family="monospace" font-size="6" text-anchor="middle">100 mm</text>
</svg>
