<svg xmlns="http://www.w3.org/2000/svg" viewBox="-117.4 -52 277.8 203.6" role="img" aria-label="140 by 90 by 28 mm organizer, 2 bays, assembled nominal preview">
<title>Original parametric two-piece organizer</title><desc>Orthographic isometric preview; nominal geometry, not a photograph or physical test.</desc>
<ellipse cx="21.5" cy="59.8" rx="92" ry="29.9" fill="#a6a98e" opacity=".15"/>
<polygon points="0,-0.48 1.29,0.15 0,0.78 -1.29,0.15" fill="#e5d3b1" stroke="#e5d3b1" stroke-width=".22"/><polygon points="-1.29,0.15 0,0.78 -1.72,1.62 -3.01,0.99" fill="#e5d3b1" stroke="#e5d3b1" stroke-width=".22"/><polygon points="0,-0.48 -1.29,0.15 -1.29,-17.85 0,-18.48" fill="#a78a64" stroke="#a78a64" stroke-width=".22"/><polygon points="0,-0.48 0,-18.48 1.29,-17.85 1.29,0.15" fill="#cfb58d" stroke="#cfb58d" stroke-width=".22"/><polygon points="-1.29,0.15 -3.01,0.99 -3.01,-17.01 -1.29,-17.85" fill="#a78a64" stroke="#a78a64" stroke-width=".22"/><polygon points="0,-28 2.58,-26.74 0,-25.48 -2.58,-26.74" fill="#e5d3b1" stroke="#e5d3b1" stroke-width=".22"/><polygon points="0,-18.48 -1.29,-17.85 -1.29,-24.85 0,-25.48" fill="#a78a64" stroke="#a78a64" stroke-width=".22"/><polygon points="0,-18.48 0,-25.48 1.29,-24.85 1.29,-17.85" fill="#cfb58d" stroke="#cfb58d" stroke-width=".22"/><polygon points="-2.58,-26.74 0,-25.48 -1.29,-24.85 -3.87,-26.11" fill="#e5d3b1" stroke="#e5d3b1" stroke-width=".22"/><polygon points="2.58,-26.74 3.87,-26.11 1.29,-24.85 0,-25.48" fill="#e5d3b1" stroke="#e5d3b1" stroke-width=".22"/><polygon points="-1.29,-17.85 -3.01,-17.01 -3.01,-24.01 -1.29,-24.85" fill="#a78a64" stroke="#a78a64" stroke-width=".22"/><polygon points="-3.87,-26.11 -1.29,-24.85 -3.01,-24.01 -5.59,-25.27" fill="#e5d3b1" stroke="#e5d3b1" stroke-width=".22"/><polygon points="1.29,0.15 56.76,27.24 55.47,27.87 0,0.78" fill="#e5d3b1" stroke="#e5d3b1" stroke-width=".22"/><polygon points="1.29,0.15 1.29,-17.85 56.76,9.24 56.76,27.24" fill="#cfb58d" stroke="#cfb58d" stroke-width=".22"/><polygon points="-3.01,0.99 -1.72,1.62 -67.94,33.96 -69.23,33.33" fill="#e5d3b1" stroke="#e5d3b1" stroke-width=".22"/><polygon points="-1.72,1.62 -1.72,-16.38 53.75,10.71 53.75,28.71" fill="#57ac9e" stroke="#57ac9e" stroke-width=".22"/><polygon points="-3.01,0.99 -69.23,33.33 -69.23,15.33 -3.01,-17.01" fill="#a78a64" stroke="#a78a64" stroke-width=".22"/><polygon points="0,-17.22 55.47,9.87 53.75,10.71 -1.72,-16.38" fill="#91d9c5" stroke="#91d9c5" stroke-width=".22"/><polygon points="1.29,-17.85 1.29,-24.85 56.76,2.24 56.76,9.24" fill="#cfb58d" stroke="#cfb58d" stroke-width=".22"/><polygon points="3.87,-26.11 59.34,0.98 56.76,2.24 1.29,-24.85" fill="#e5d3b1" stroke="#e5d3b1" stroke-width=".22"/><polygon points="-3.01,-17.01 -69.23,15.33 -69.23,8.33 -3.01,-24.01" fill="#a78a64" stroke="#a78a64" stroke-width=".22"/><polygon points="-5.59,-25.27 -3.01,-24.01 -69.23,8.33 -71.81,7.07" fill="#e5d3b1" stroke="#e5d3b1" stroke-width=".22"/><polygon points="56.76,27.24 58.48,28.08 57.19,28.71 55.47,27.87" fill="#e5d3b1" stroke="#e5d3b1" stroke-width=".22"/><polygon points="56.76,27.24 56.76,9.24 58.48,10.08 58.48,28.08" fill="#cfb58d" stroke="#cfb58d" stroke-width=".22"/><polygon points="-1.72,1.62 53.75,28.71 -12.47,61.05 -67.94,33.96" fill="#e5d3b1" stroke="#e5d3b1" stroke-width=".22"/><polygon points="-69.23,33.33 -67.94,33.96 -69.66,34.8 -70.95,34.17" fill="#e5d3b1" stroke="#e5d3b1" stroke-width=".22"/><polygon points="-70.95,34.17 -69.66,34.8 -70.95,35.43 -72.24,34.8" fill="#e5d3b1" stroke="#e5d3b1" stroke-width=".22"/><polygon points="-77.4,37.8 -77.4,34.8 -74.82,36.06 -74.82,39.06" fill="#cfb58d" stroke="#cfb58d" stroke-width=".22"/><polygon points="55.47,9.87 57.19,10.71 55.47,11.55 53.75,10.71" fill="#91d9c5" stroke="#91d9c5" stroke-width=".22"/><polygon points="56.76,9.24 56.76,2.24 58.48,3.08 58.48,10.08" fill="#cfb58d" stroke="#cfb58d" stroke-width=".22"/><polygon points="-74.82,39.06 -74.82,36.06 -73.53,36.69 -73.53,39.69" fill="#cfb58d" stroke="#cfb58d" stroke-width=".22"/><polygon points="59.34,0.98 61.06,1.82 58.48,3.08 56.76,2.24" fill="#e5d3b1" stroke="#e5d3b1" stroke-width=".22"/><polygon points="-69.23,33.33 -70.95,34.17 -70.95,16.17 -69.23,15.33" fill="#a78a64" stroke="#a78a64" stroke-width=".22"/><polygon points="-70.95,34.17 -72.24,34.8 -72.24,16.8 -70.95,16.17" fill="#a78a64" stroke="#a78a64" stroke-width=".22"/><polygon points="-77.4,34.8 -77.4,16.8 -74.82,18.06 -74.82,36.06" fill="#cfb58d" stroke="#cfb58d" stroke-width=".22"/><polygon points="-74.82,36.06 -74.82,18.06 -73.53,18.69 -73.53,36.69" fill="#cfb58d" stroke="#cfb58d" stroke-width=".22"/><polygon points="-69.23,15.33 -70.95,16.17 -70.95,9.17 -69.23,8.33" fill="#a78a64" stroke="#a78a64" stroke-width=".22"/><polygon points="-71.81,7.07 -69.23,8.33 -70.95,9.17 -73.53,7.91" fill="#e5d3b1" stroke="#e5d3b1" stroke-width=".22"/><polygon points="58.48,28.08 113.95,55.17 112.66,55.8 57.19,28.71" fill="#e5d3b1" stroke="#e5d3b1" stroke-width=".22"/><polygon points="-70.95,16.17 -72.24,16.8 -72.24,9.8 -70.95,9.17" fill="#a78a64" stroke="#a78a64" stroke-width=".22"/><polygon points="-73.53,7.91 -70.95,9.17 -72.24,9.8 -74.82,8.54" fill="#e5d3b1" stroke="#e5d3b1" stroke-width=".22"/><polygon points="-77.4,16.8 -77.4,9.8 -74.82,11.06 -74.82,18.06" fill="#cfb58d" stroke="#cfb58d" stroke-width=".22"/><polygon points="-74.82,8.54 -72.24,9.8 -74.82,11.06 -77.4,9.8" fill="#e5d3b1" stroke="#e5d3b1" stroke-width=".22"/><polygon points="-74.82,18.06 -74.82,11.06 -73.53,11.69 -73.53,18.69" fill="#cfb58d" stroke="#cfb58d" stroke-width=".22"/><polygon points="-72.24,9.8 -70.95,10.43 -73.53,11.69 -74.82,11.06" fill="#e5d3b1" stroke="#e5d3b1" stroke-width=".22"/><polygon points="58.48,28.08 58.48,10.08 113.95,37.17 113.95,55.17" fill="#cfb58d" stroke="#cfb58d" stroke-width=".22"/><polygon points="55.47,29.55 55.47,11.55 110.94,38.64 110.94,56.64" fill="#57ac9e" stroke="#57ac9e" stroke-width=".22"/><polygon points="-69.66,34.8 -14.19,61.89 -15.48,62.52 -70.95,35.43" fill="#e5d3b1" stroke="#e5d3b1" stroke-width=".22"/><polygon points="55.47,29.55 -10.75,61.89 -10.75,43.89 55.47,11.55" fill="#2e8279" stroke="#2e8279" stroke-width=".22"/><polygon points="57.19,10.71 112.66,37.8 110.94,38.64 55.47,11.55" fill="#91d9c5" stroke="#91d9c5" stroke-width=".22"/><polygon points="58.48,10.08 58.48,3.08 113.95,30.17 113.95,37.17" fill="#cfb58d" stroke="#cfb58d" stroke-width=".22"/><polygon points="-73.53,39.69 -73.53,36.69 -18.06,63.78 -18.06,66.78" fill="#cfb58d" stroke="#cfb58d" stroke-width=".22"/><polygon points="61.06,1.82 116.53,28.91 113.95,30.17 58.48,3.08" fill="#e5d3b1" stroke="#e5d3b1" stroke-width=".22"/><polygon points="-69.66,34.8 -69.66,16.8 -14.19,43.89 -14.19,61.89" fill="#57ac9e" stroke="#57ac9e" stroke-width=".22"/><polygon points="53.75,10.71 55.47,11.55 -10.75,43.89 -12.47,43.05" fill="#91d9c5" stroke="#91d9c5" stroke-width=".22"/><polygon points="-73.53,36.69 -73.53,18.69 -18.06,45.78 -18.06,63.78" fill="#cfb58d" stroke="#cfb58d" stroke-width=".22"/><polygon points="-67.94,15.96 -12.47,43.05 -14.19,43.89 -69.66,16.8" fill="#91d9c5" stroke="#91d9c5" stroke-width=".22"/><polygon points="113.95,55.17 115.24,55.8 113.95,56.43 112.66,55.8" fill="#e5d3b1" stroke="#e5d3b1" stroke-width=".22"/><polygon points="120.4,58.8 117.82,60.06 117.82,57.06 120.4,55.8" fill="#a78a64" stroke="#a78a64" stroke-width=".22"/><polygon points="112.66,55.8 113.95,56.43 112.23,57.27 110.94,56.64" fill="#e5d3b1" stroke="#e5d3b1" stroke-width=".22"/><polygon points="117.82,60.06 116.53,60.69 116.53,57.69 117.82,57.06" fill="#a78a64" stroke="#a78a64" stroke-width=".22"/><polygon points="116.53,60.69 114.81,61.53 114.81,58.53 116.53,57.69" fill="#a78a64" stroke="#a78a64" stroke-width=".22"/><polygon points="-73.53,18.69 -73.53,11.69 -18.06,38.78 -18.06,45.78" fill="#cfb58d" stroke="#cfb58d" stroke-width=".22"/><polygon points="-70.95,10.43 -15.48,37.52 -18.06,38.78 -73.53,11.69" fill="#e5d3b1" stroke="#e5d3b1" stroke-width=".22"/><polygon points="113.95,55.17 113.95,37.17 115.24,37.8 115.24,55.8" fill="#cfb58d" stroke="#cfb58d" stroke-width=".22"/><polygon points="55.47,29.55 110.94,56.64 44.72,88.98 -10.75,61.89" fill="#e5d3b1" stroke="#e5d3b1" stroke-width=".22"/><polygon points="112.66,55.8 110.94,56.64 110.94,38.64 112.66,37.8" fill="#2e8279" stroke="#2e8279" stroke-width=".22"/><polygon points="120.4,55.8 117.82,57.06 117.82,39.06 120.4,37.8" fill="#a78a64" stroke="#a78a64" stroke-width=".22"/><polygon points="117.82,57.06 116.53,57.69 116.53,39.69 117.82,39.06" fill="#a78a64" stroke="#a78a64" stroke-width=".22"/><polygon points="116.53,57.69 114.81,58.53 114.81,40.53 116.53,39.69" fill="#a78a64" stroke="#a78a64" stroke-width=".22"/><polygon points="-14.19,61.89 -12.47,62.73 -13.76,63.36 -15.48,62.52" fill="#e5d3b1" stroke="#e5d3b1" stroke-width=".22"/><polygon points="113.95,37.17 113.95,30.17 115.24,30.8 115.24,37.8" fill="#cfb58d" stroke="#cfb58d" stroke-width=".22"/><polygon points="-18.06,66.78 -18.06,63.78 -16.34,64.62 -16.34,67.62" fill="#cfb58d" stroke="#cfb58d" stroke-width=".22"/><polygon points="116.53,28.91 117.82,29.54 115.24,30.8 113.95,30.17" fill="#e5d3b1" stroke="#e5d3b1" stroke-width=".22"/><polygon points="120.4,37.8 117.82,39.06 117.82,32.06 120.4,30.8" fill="#a78a64" stroke="#a78a64" stroke-width=".22"/><polygon points="117.82,29.54 120.4,30.8 117.82,32.06 115.24,30.8" fill="#e5d3b1" stroke="#e5d3b1" stroke-width=".22"/><polygon points="117.82,39.06 116.53,39.69 116.53,32.69 117.82,32.06" fill="#a78a64" stroke="#a78a64" stroke-width=".22"/><polygon points="-14.19,61.89 -14.19,43.89 -12.47,44.73 -12.47,62.73" fill="#57ac9e" stroke="#57ac9e" stroke-width=".22"/><polygon points="115.24,30.8 117.82,32.06 116.53,32.69 113.95,31.43" fill="#e5d3b1" stroke="#e5d3b1" stroke-width=".22"/><polygon points="116.53,39.69 114.81,40.53 114.81,33.53 116.53,32.69" fill="#a78a64" stroke="#a78a64" stroke-width=".22"/><polygon points="113.95,31.43 116.53,32.69 114.81,33.53 112.23,32.27" fill="#e5d3b1" stroke="#e5d3b1" stroke-width=".22"/><polygon points="-18.06,63.78 -18.06,45.78 -16.34,46.62 -16.34,64.62" fill="#cfb58d" stroke="#cfb58d" stroke-width=".22"/><polygon points="-12.47,43.05 -10.75,43.89 -12.47,44.73 -14.19,43.89" fill="#91d9c5" stroke="#91d9c5" stroke-width=".22"/><polygon points="-18.06,45.78 -18.06,38.78 -16.34,39.62 -16.34,46.62" fill="#cfb58d" stroke="#cfb58d" stroke-width=".22"/><polygon points="-15.48,37.52 -13.76,38.36 -16.34,39.62 -18.06,38.78" fill="#e5d3b1" stroke="#e5d3b1" stroke-width=".22"/><polygon points="110.94,56.64 112.23,57.27 46.01,89.61 44.72,88.98" fill="#e5d3b1" stroke="#e5d3b1" stroke-width=".22"/><polygon points="114.81,61.53 48.59,93.87 48.59,90.87 114.81,58.53" fill="#a78a64" stroke="#a78a64" stroke-width=".22"/><polygon points="-12.47,62.73 43,89.82 41.71,90.45 -13.76,63.36" fill="#e5d3b1" stroke="#e5d3b1" stroke-width=".22"/><polygon points="-16.34,67.62 -16.34,64.62 39.13,91.71 39.13,94.71" fill="#cfb58d" stroke="#cfb58d" stroke-width=".22"/><polygon points="114.81,58.53 48.59,90.87 48.59,72.87 114.81,40.53" fill="#a78a64" stroke="#a78a64" stroke-width=".22"/><polygon points="-12.47,62.73 -12.47,44.73 43,71.82 43,89.82" fill="#57ac9e" stroke="#57ac9e" stroke-width=".22"/><polygon points="-16.34,64.62 -16.34,46.62 39.13,73.71 39.13,91.71" fill="#cfb58d" stroke="#cfb58d" stroke-width=".22"/><polygon points="-10.75,43.89 44.72,70.98 43,71.82 -12.47,44.73" fill="#91d9c5" stroke="#91d9c5" stroke-width=".22"/><polygon points="114.81,40.53 48.59,72.87 48.59,65.87 114.81,33.53" fill="#a78a64" stroke="#a78a64" stroke-width=".22"/><polygon points="112.23,32.27 114.81,33.53 48.59,65.87 46.01,64.61" fill="#e5d3b1" stroke="#e5d3b1" stroke-width=".22"/><polygon points="-16.34,46.62 -16.34,39.62 39.13,66.71 39.13,73.71" fill="#cfb58d" stroke="#cfb58d" stroke-width=".22"/><polygon points="-13.76,38.36 41.71,65.45 39.13,66.71 -16.34,39.62" fill="#e5d3b1" stroke="#e5d3b1" stroke-width=".22"/><polygon points="44.72,88.98 46.01,89.61 44.29,90.45 43,89.82" fill="#e5d3b1" stroke="#e5d3b1" stroke-width=".22"/><polygon points="43,89.82 44.29,90.45 43,91.08 41.71,90.45" fill="#e5d3b1" stroke="#e5d3b1" stroke-width=".22"/><polygon points="48.59,93.87 46.87,94.71 46.87,91.71 48.59,90.87" fill="#a78a64" stroke="#a78a64" stroke-width=".22"/><polygon points="39.13,94.71 39.13,91.71 40.42,92.34 40.42,95.34" fill="#cfb58d" stroke="#cfb58d" stroke-width=".22"/><polygon points="46.87,94.71 45.58,95.34 45.58,92.34 46.87,91.71" fill="#a78a64" stroke="#a78a64" stroke-width=".22"/><polygon points="45.58,95.34 43,96.6 43,93.6 45.58,92.34" fill="#a78a64" stroke="#a78a64" stroke-width=".22"/><polygon points="40.42,95.34 40.42,92.34 43,93.6 43,96.6" fill="#cfb58d" stroke="#cfb58d" stroke-width=".22"/><polygon points="44.72,88.98 43,89.82 43,71.82 44.72,70.98" fill="#2e8279" stroke="#2e8279" stroke-width=".22"/><polygon points="48.59,90.87 46.87,91.71 46.87,73.71 48.59,72.87" fill="#a78a64" stroke="#a78a64" stroke-width=".22"/><polygon points="39.13,91.71 39.13,73.71 40.42,74.34 40.42,92.34" fill="#cfb58d" stroke="#cfb58d" stroke-width=".22"/><polygon points="46.87,91.71 45.58,92.34 45.58,74.34 46.87,73.71" fill="#a78a64" stroke="#a78a64" stroke-width=".22"/><polygon points="45.58,92.34 43,93.6 43,75.6 45.58,74.34" fill="#a78a64" stroke="#a78a64" stroke-width=".22"/><polygon points="40.42,92.34 40.42,74.34 43,75.6 43,93.6" fill="#cfb58d" stroke="#cfb58d" stroke-width=".22"/><polygon points="48.59,72.87 46.87,73.71 46.87,66.71 48.59,65.87" fill="#a78a64" stroke="#a78a64" stroke-width=".22"/><polygon points="46.01,64.61 48.59,65.87 46.87,66.71 44.29,65.45" fill="#e5d3b1" stroke="#e5d3b1" stroke-width=".22"/><polygon points="39.13,73.71 39.13,66.71 40.42,67.34 40.42,74.34" fill="#cfb58d" stroke="#cfb58d" stroke-width=".22"/><polygon points="46.87,73.71 45.58,74.34 45.58,67.34 46.87,66.71" fill="#a78a64" stroke="#a78a64" stroke-width=".22"/><polygon points="41.71,65.45 43,66.08 40.42,67.34 39.13,66.71" fill="#e5d3b1" stroke="#e5d3b1" stroke-width=".22"/><polygon points="44.29,65.45 46.87,66.71 45.58,67.34 43,66.08" fill="#e5d3b1" stroke="#e5d3b1" stroke-width=".22"/><polygon points="45.58,74.34 43,75.6 43,68.6 45.58,67.34" fill="#a78a64" stroke="#a78a64" stroke-width=".22"/><polygon points="40.42,74.34 40.42,67.34 43,68.6 43,75.6" fill="#cfb58d" stroke="#cfb58d" stroke-width=".22"/><polygon points="43,66.08 45.58,67.34 43,68.6 40.42,67.34" fill="#e5d3b1" stroke="#e5d3b1" stroke-width=".22"/>
<path d="M -88.58 43.26 L 31.82 102.06" stroke="#718788" stroke-width=".55"/><circle cx="-88.58" cy="43.26" r="1" fill="#718788"/><circle cx="31.82" cy="102.06" r="1" fill="#718788"/><text x="-28.38" y="81.66" fill="#496263" font-family="monospace" font-size="6" text-anchor="middle">140 mm</text>
<path d="M 131.58 64.26 L 54.18 102.06" stroke="#718788" stroke-width=".55"/><circle cx="131.58" cy="64.26" r="1" fill="#718788"/><circle cx="54.18" cy="102.06" r="1" fill="#718788"/><text x="92.88" y="92.16" fill="#496263" font-family="monospace" font-size="6" text-anchor="middle">90 mm</text>
</svg>
